<?xml version="1.0" encoding="iso-8859-1"?>
<!-- Generator: Adobe Illustrator 19.0.0, SVG Export Plug-In . SVG Version: 6.00 Build 0)  -->
<svg version="1.1" id="Capa_1" xmlns="http://www.w3.org/2000/svg" xmlns:xlink="http://www.w3.org/1999/xlink" x="0px" y="0px"
	 viewBox="0 0 490 490" style="enable-background:new 0 0 490 490;" xml:space="preserve">
<g>
	<path d="M435.4,448.3h-3.1V347.5c9-16.7,13.9-36.3,13.5-57.3c0-16.5-6.2-35.8-15.5-55.2c0.6-1.9,0.9-193.4,0.9-193.4h4.2
		c11.4,0,20.8-9.4,20.8-20.8S446.8,0,435.4,0H54.6C43.2,0,33.8,9.4,33.8,20.8s9.4,20.8,20.8,20.8h4.2v183.1h-4.2
		c-11.4,0-20.8,9.4-20.8,20.8s9.4,20.8,20.8,20.8h4.2v182.1h-4.2c-11.4,0-20.8,9.4-20.8,20.8S43.2,490,54.6,490h380.8
		c11.4,0,20.8-9.4,20.8-20.8C456.2,457.6,446.8,448.3,435.4,448.3z M338.6,168.4c31.2,37.5,67.6,92.6,67.6,121.7
		c0,41.6-29.1,72.8-67.6,72.8S271,331.7,271,290.1C271,262.1,308.5,206.9,338.6,168.4z M100.4,41.5h289.2v126.9
		c-17.2-23.8-32.7-41.6-36.4-45.8c-7.3-8.3-22.9-8.3-30.2,0c-6.3,7.7-46.5,54.1-71.8,102H100.4V41.5z M100.4,266.2H234
		c-2.3,8.4-3.6,16.4-3.6,23.9c0,63.5,47.9,113.4,108.2,113.4c19.1,0,36.8-4.8,52-13.4v58.1H100.4V266.2z"/>
</g>
<g>
</g>
<g>
</g>
<g>
</g>
<g>
</g>
<g>
</g>
<g>
</g>
<g>
</g>
<g>
</g>
<g>
</g>
<g>
</g>
<g>
</g>
<g>
</g>
<g>
</g>
<g>
</g>
<g>
</g>
</svg>
